<svg width="20" height="21" viewBox="0 0 20 21" fill="none" xmlns="http://www.w3.org/2000/svg">
<path d="M20 10.1879C20 15.7107 15.5228 20.1879 10 20.1879C4.47715 20.1879 0 15.7107 0 10.1879C0 4.66503 4.47715 0.187874 10 0.187874C15.5228 0.187874 20 4.66503 20 10.1879Z" fill="#393939"/>
<path d="M12.2982 13.5466C12.5911 13.8395 13.0659 13.8395 13.3588 13.5466C13.6517 13.2537 13.6517 12.7788 13.3588 12.4859L11.0608 10.1879L13.3588 7.88984C13.6517 7.59695 13.6517 7.12208 13.3588 6.82918C13.0659 6.53629 12.591 6.53629 12.2982 6.82918L10.0001 9.12721L7.70198 6.82905C7.40908 6.53616 6.93421 6.53616 6.64132 6.82905C6.34842 7.12195 6.34842 7.59682 6.64132 7.88971L8.93947 10.1879L6.6413 12.486C6.34841 12.7789 6.34841 13.2538 6.6413 13.5467C6.93419 13.8396 7.40907 13.8396 7.70196 13.5467L10.0001 11.2485L12.2982 13.5466Z" fill="white"/>
</svg>
